<?xml version="1.0" standalone="no"?>
<!DOCTYPE svg PUBLIC "-//W3C//DTD SVG 20010904//EN"
 "http://www.w3.org/TR/2001/REC-SVG-20010904/DTD/svg10.dtd">
<svg version="1.0" xmlns="http://www.w3.org/2000/svg"
 width="521.000000pt" height="521.000000pt" viewBox="0 0 521.000000 521.000000"
 preserveAspectRatio="xMidYMid meet">
<metadata>
Created by potrace 1.14, written by Peter Selinger 2001-2017
</metadata>
<g transform="translate(0.000000,521.000000) scale(0.100000,-0.100000)"
fill="#000000" stroke="none">
<path d="M2548 5110 c-108 -18 -220 -95 -263 -180 -107 -211 20 -472 248 -511
85 -14 191 -1 242 31 59 37 131 122 154 185 30 79 26 207 -8 273 -74 143 -228
226 -373 202z m133 -205 c115 -60 118 -250 5 -304 -23 -12 -54 -21 -68 -21
-62 0 -146 48 -173 100 -30 59 -13 162 35 205 49 44 137 53 201 20z"/>
<path d="M1745 4693 c-53 -13 -111 -108 -99 -160 18 -73 96 -124 159 -103 81
27 127 128 91 199 -25 48 -96 78 -151 64z"/>
<path d="M3320 4654 c-34 -31 -40 -42 -40 -76 0 -51 33 -114 70 -133 53 -27
98 -20 141 24 35 35 39 44 39 91 0 47 -4 56 -39 91 -34 34 -45 39 -85 39 -39
0 -52 -6 -86 -36z"/>
<path d="M2110 4660 c-16 -6 -6 -7 30 -3 30 3 57 7 59 9 8 7 -64 2 -89 -6z"/>
<path d="M3004 4662 c4 -7 16 -12 26 -12 10 0 56 -9 102 -20 113 -27 139 -23
48 7 -87 29 -187 43 -176 25z"/>
<path d="M2225 4493 c-201 -44 -342 -92 -519 -178 -104 -50 -258 -144 -299
-183 -32 -30 -67 -92 -67 -118 0 -19 46 -84 59 -84 5 0 41 25 82 55 234 173
581 321 842 360 56 9 103 17 105 19 2 2 -18 19 -45 37 -26 18 -65 47 -86 66
-20 18 -40 32 -45 32 -4 -1 -16 -3 -27 -6z"/>
<path d="M2892 4445 c-29 -29 -61 -57 -72 -60 -27 -8 -25 -23 3 -29 266 -56
321 -72 465 -132 136 -57 258 -123 396 -213 61 -39 118 -71 127 -71 10 0 27
12 39 27 59 75 -15 156 -281 306 -165 94 -455 203 -584 221 -39 5 -43 3 -93
-49z"/>
<path d="M841 4470 c-114 -42 -216 -149 -242 -253 -29 -119 12 -259 103 -350
71 -71 123 -92 233 -92 78 0 97 4 145 28 l55 27 33 -37 c19 -21 44 -58 57 -83
41 -78 346 -504 499 -697 32 -41 57 -75 55 -76 -2 -2 -80 -18 -174 -36 -229
-45 -353 -73 -455 -104 -84 -25 -382 -99 -408 -101 -8 -1 -23 22 -33 51 -25
66 -120 162 -198 200 -48 24 -68 28 -141 27 -75 0 -93 -4 -151 -33 -114 -56
-174 -129 -205 -252 -37 -146 43 -315 187 -394 102 -55 267 -43 365 27 52 37
121 121 141 171 9 22 22 37 32 37 10 0 67 -16 127 -36 212 -69 382 -112 639
-164 143 -28 266 -54 273 -56 9 -2 -2 -22 -32 -56 -116 -134 -273 -330 -319
-398 -28 -41 -87 -124 -132 -185 -45 -60 -95 -132 -110 -158 -33 -57 -45 -64
-78 -43 -32 21 -151 36 -214 26 -104 -17 -223 -104 -274 -201 -20 -37 -23 -59
-24 -144 0 -92 2 -104 29 -152 39 -70 119 -148 186 -181 46 -23 68 -27 135
-27 98 1 169 30 243 99 97 91 130 229 88 371 -22 72 -25 69 113 122 136 52
327 154 779 415 57 33 106 57 109 54 3 -3 27 -111 53 -239 26 -129 64 -294 85
-368 21 -74 48 -179 62 -234 13 -55 31 -110 39 -122 14 -22 19 -23 87 -17 39
4 77 11 83 16 6 4 17 27 23 51 43 165 173 703 192 795 12 62 25 111 28 110 20
-9 234 -127 540 -296 153 -84 285 -145 446 -204 45 -16 46 -19 15 -103 -18
-48 -21 -73 -17 -128 14 -164 121 -285 284 -318 151 -31 318 62 391 219 23 48
27 70 27 142 0 103 -19 144 -104 233 -75 79 -117 99 -216 105 -67 3 -93 0
-155 -21 -41 -14 -78 -23 -82 -21 -3 2 -18 25 -33 50 -15 25 -59 89 -99 143
-39 53 -102 139 -139 192 -65 95 -189 252 -314 398 -45 53 -60 77 -51 82 7 3
103 23 213 43 271 50 333 63 450 96 55 16 127 34 160 40 33 7 93 25 133 41 40
16 80 29 90 29 10 0 31 -25 52 -61 19 -34 57 -85 85 -113 40 -43 64 -57 119
-76 136 -45 252 -20 356 77 84 78 123 161 124 264 1 68 -3 83 -37 152 -57 116
-141 177 -271 200 -81 14 -171 -8 -254 -63 -75 -49 -104 -82 -142 -157 -17
-35 -33 -63 -36 -63 -2 0 -23 9 -44 20 -22 11 -69 27 -104 35 -35 8 -130 33
-210 54 -178 48 -455 105 -592 122 l-101 12 77 96 c138 172 357 469 409 553
27 46 80 116 118 156 l68 74 48 -21 c77 -33 135 -37 218 -11 60 18 82 31 132
78 68 65 100 116 123 193 66 222 -153 466 -384 429 -124 -21 -223 -92 -274
-199 -27 -57 -32 -77 -32 -146 0 -61 5 -91 22 -128 l22 -48 -26 -24 c-13 -13
-37 -26 -52 -30 -62 -15 -250 -107 -432 -210 -228 -130 -516 -285 -530 -285
-6 0 -10 3 -10 8 0 23 -85 425 -111 522 -16 63 -43 178 -59 254 -16 77 -34
144 -39 149 -11 11 -172 10 -184 -2 -4 -4 -26 -77 -48 -162 -22 -85 -51 -190
-64 -234 -13 -44 -45 -183 -70 -310 -26 -126 -48 -231 -50 -233 -2 -2 -23 9
-47 24 -23 15 -86 51 -138 79 -52 28 -136 77 -185 107 -139 85 -403 215 -555
272 -25 9 -59 29 -77 44 l-32 28 25 64 c23 55 26 75 22 144 -5 98 -29 148 -99
217 -101 98 -239 133 -358 89z m190 -192 c47 -26 65 -52 78 -111 25 -108 -54
-207 -164 -207 -56 0 -96 19 -128 62 -52 70 -56 150 -9 216 45 63 150 82 223
40z m3286 11 c34 -13 80 -55 99 -91 8 -15 14 -51 14 -81 0 -133 -139 -212
-251 -142 -124 79 -115 247 16 306 46 21 82 24 122 8z m-1627 -704 c15 -77 34
-190 41 -251 12 -106 11 -115 -9 -165 -11 -30 -24 -64 -27 -77 -6 -22 -10 -23
-62 -16 -50 6 -61 12 -118 68 l-63 61 13 75 c7 41 25 149 40 240 15 91 39 221
55 290 16 69 32 141 35 160 8 37 11 25 95 -385z m973 -32 c-43 -54 -91 -116
-108 -138 -16 -22 -86 -107 -155 -189 -69 -82 -145 -174 -170 -205 -36 -44
-196 -168 -220 -170 -3 -1 -22 21 -43 49 -21 27 -59 62 -86 78 l-49 28 59 87
c33 47 79 101 102 120 53 43 223 144 592 350 55 31 111 65 125 76 14 11 26 18
28 16 2 -2 -31 -48 -75 -102z m-2088 26 c127 -65 392 -217 497 -285 70 -46
136 -101 206 -172 l103 -104 -23 -16 c-31 -21 -100 -91 -118 -120 l-15 -23
-85 46 c-91 49 -163 117 -323 303 -132 155 -339 418 -321 411 5 -2 41 -20 79
-40z m1129 -710 c53 -15 129 -88 156 -151 30 -69 26 -182 -8 -248 -55 -105
-135 -160 -235 -160 -122 0 -205 50 -256 152 -51 101 -42 226 22 310 48 63
140 108 220 108 34 0 79 -5 101 -11z m-2277 -80 c90 -34 140 -158 97 -242 -35
-69 -82 -99 -154 -99 -131 0 -219 136 -161 250 43 84 135 123 218 91z m4517
-23 c61 -46 85 -120 65 -199 -38 -152 -252 -167 -326 -23 -24 46 -14 145 19
188 39 51 82 69 150 65 42 -2 65 -10 92 -31z m-1384 -40 c124 -23 472 -92 520
-103 22 -5 20 -7 -20 -18 -84 -23 -225 -54 -315 -70 -49 -9 -134 -27 -187 -40
-226 -56 -346 -57 -425 -7 l-50 32 1 80 c1 79 1 80 33 100 18 10 42 29 54 41
21 21 27 22 143 15 67 -4 177 -17 246 -30z m-1493 -3 c75 -25 83 -30 78 -48
-4 -11 -9 -51 -10 -90 l-4 -70 -73 -37 c-40 -21 -85 -38 -99 -38 -47 0 -259
40 -484 92 -121 27 -245 54 -275 60 -123 22 -123 22 71 57 635 115 663 117
796 74z m202 -457 c18 -23 46 -49 62 -59 l29 -19 -22 -31 c-71 -102 -178 -179
-553 -399 -322 -189 -333 -195 -314 -172 9 10 50 62 92 114 97 123 179 223
242 296 231 270 220 260 285 283 33 12 73 33 88 46 l27 24 15 -21 c8 -12 30
-40 49 -62z m867 8 c25 -5 45 -19 72 -52 20 -24 95 -110 166 -191 167 -190
401 -487 365 -465 -8 5 -32 21 -54 35 -41 27 -167 102 -430 254 -151 88 -261
158 -302 192 -12 10 -37 46 -56 79 l-35 62 55 53 c30 30 61 66 70 80 l16 26
49 -33 c27 -18 65 -36 84 -40z m-431 -174 c3 -14 15 -44 26 -68 20 -41 20 -44
4 -145 -9 -56 -41 -225 -71 -375 -30 -150 -54 -284 -54 -299 0 -14 -2 -24 -5
-22 -7 7 -61 269 -80 389 -9 58 -28 165 -41 238 -29 162 -29 177 -4 209 11 14
24 42 30 62 l10 36 89 0 c88 0 90 -1 96 -25z m-1688 -826 c47 -23 93 -103 93
-164 0 -63 -35 -130 -80 -152 -80 -41 -180 -11 -226 67 -84 144 65 318 213
249z m3341 -12 c48 -35 75 -101 70 -174 -4 -56 -8 -64 -45 -99 -77 -72 -161
-72 -235 -1 -46 43 -62 89 -54 147 9 59 42 106 96 133 55 28 122 26 168 -6z"/>
<path d="M3105 4086 c-143 -62 -165 -236 -42 -330 108 -82 269 -10 284 128 16
137 -124 254 -242 202z"/>
<path d="M1938 4065 c-130 -88 -86 -311 67 -339 114 -22 233 101 211 217 -23
121 -179 190 -278 122z"/>
<path d="M699 3723 c-45 -52 -87 -120 -94 -154 -6 -26 -11 -29 -46 -29 -49 0
-88 -19 -123 -60 -50 -60 -28 -164 43 -206 28 -16 29 -19 16 -43 -15 -30 -55
-157 -55 -176 0 -10 47 -35 66 -35 5 0 44 178 44 203 0 18 7 26 26 31 44 11
72 36 94 82 24 48 21 82 -10 144 l-18 36 37 54 c20 30 51 75 69 99 35 48 40
76 16 85 -26 10 -31 8 -65 -31z"/>
<path d="M4433 3743 c-7 -18 28 -90 88 -183 35 -55 36 -57 19 -81 -37 -52 -31
-140 11 -185 13 -13 39 -29 59 -35 35 -11 38 -15 47 -68 6 -31 18 -82 28 -113
15 -54 19 -58 46 -58 51 0 49 34 -8 178 l-25 63 36 39 c54 60 61 147 14 197
-25 27 -90 47 -124 39 -16 -4 -24 -2 -24 7 0 7 -17 49 -39 93 -50 103 -110
154 -128 107z"/>
<path d="M1059 3732 c-58 -4 -69 -15 -153 -159 -103 -177 -167 -341 -217 -551
-23 -95 -24 -92 54 -176 66 -71 71 -66 97 99 27 181 134 442 259 633 34 51 61
99 61 106 0 13 -25 39 -45 47 -5 2 -31 3 -56 1z"/>
<path d="M4076 3707 l-28 -23 42 -69 c160 -261 243 -483 295 -787 3 -21 10
-38 16 -38 18 0 97 80 110 111 23 58 -37 298 -126 501 -51 115 -144 267 -186
303 -38 32 -84 33 -123 2z"/>
<path d="M1155 3316 c-41 -19 -90 -74 -104 -116 -14 -44 -1 -121 26 -159 24
-33 98 -71 138 -71 45 0 116 40 142 79 27 40 32 135 9 179 -43 82 -137 121
-211 88z"/>
<path d="M3946 3320 c-68 -21 -125 -115 -111 -187 18 -99 73 -147 166 -148 68
0 116 32 148 98 49 100 1 207 -104 236 -46 13 -59 13 -99 1z"/>
<path d="M753 2413 c-19 -21 -46 -53 -61 -71 l-25 -33 22 -106 c42 -196 126
-421 209 -561 64 -108 66 -109 155 -116 73 -6 77 -6 77 13 0 12 -13 42 -29 68
-58 95 -171 340 -206 448 -31 94 -46 170 -71 352 -7 47 -31 49 -71 6z"/>
<path d="M4391 2393 c-6 -27 -18 -88 -27 -137 -20 -112 -66 -270 -105 -358
-16 -37 -65 -130 -110 -208 -83 -147 -88 -166 -46 -189 20 -11 32 -9 79 12 44
20 64 37 97 83 89 123 207 413 246 604 20 100 19 114 -11 166 -30 50 -58 74
-90 74 -18 0 -24 -9 -33 -47z"/>
<path d="M1167 2225 c-76 -27 -118 -87 -119 -169 -1 -116 85 -189 203 -173 79
10 149 94 149 176 0 76 -35 130 -105 162 -47 22 -76 23 -128 4z"/>
<path d="M3925 2221 c-48 -22 -69 -44 -90 -94 -29 -70 -11 -151 47 -204 52
-49 152 -59 209 -20 97 65 113 186 36 274 -56 63 -127 79 -202 44z"/>
<path d="M446 2205 c-10 -11 -14 -26 -10 -48 8 -46 45 -160 57 -175 7 -9 4
-17 -12 -28 -60 -42 -81 -81 -81 -151 0 -83 86 -139 179 -115 l39 9 6 -36 c7
-44 76 -165 96 -169 9 -1 24 4 35 12 20 14 20 15 -5 62 -14 26 -45 69 -70 94
l-45 47 23 44 c26 51 28 98 5 146 -18 39 -65 73 -101 73 -14 0 -21 4 -17 10 4
6 0 43 -9 83 -8 40 -18 91 -21 115 -6 36 -10 42 -30 42 -13 0 -30 -7 -39 -15z"/>
<path d="M4721 2211 c-7 -5 -20 -45 -28 -90 -21 -126 -33 -154 -68 -163 -80
-20 -116 -117 -80 -215 l17 -48 -62 -93 c-45 -67 -60 -96 -52 -104 6 -6 18 -8
26 -5 20 8 114 135 122 165 5 19 13 22 61 22 73 0 110 21 135 76 27 63 17 117
-31 165 l-36 36 23 69 c26 81 40 184 24 184 -6 0 -16 2 -24 5 -7 3 -19 1 -27
-4z"/>
<path d="M3112 1499 c-47 -14 -109 -80 -123 -131 -22 -83 26 -194 99 -232 136
-69 285 38 270 195 -12 118 -134 202 -246 168z"/>
<path d="M1970 1489 c-32 -13 -78 -56 -96 -91 -21 -40 -18 -131 6 -177 64
-127 226 -135 308 -17 23 34 27 49 27 111 0 63 -3 76 -29 109 -48 64 -146 93
-216 65z"/>
<path d="M1375 1261 c-14 -17 -16 -31 -10 -89 6 -65 10 -72 48 -110 41 -39
225 -160 310 -203 124 -64 337 -138 454 -159 l73 -13 57 54 c32 30 69 61 83
70 24 16 23 16 -48 23 -278 28 -603 171 -859 379 -45 37 -84 67 -86 67 -2 0
-12 -9 -22 -19z"/>
<path d="M3785 1244 c-16 -13 -87 -63 -158 -110 -219 -147 -489 -258 -702
-289 -60 -9 -112 -19 -114 -21 -9 -9 135 -133 154 -133 60 -2 320 80 462 144
141 65 366 212 412 270 26 34 35 112 16 142 -19 29 -32 29 -70 -3z"/>
<path d="M2524 789 c-107 -25 -230 -142 -261 -248 -22 -77 -14 -181 19 -246
86 -167 286 -246 446 -175 97 43 202 180 217 284 9 57 -10 148 -43 210 -70
129 -239 208 -378 175z m144 -193 c104 -55 123 -183 38 -265 -79 -77 -216 -40
-260 70 -48 121 106 256 222 195z"/>
<path d="M1713 728 c-49 -35 -66 -72 -59 -124 11 -82 58 -124 139 -124 75 0
127 58 127 143 0 102 -123 164 -207 105z"/>
<path d="M3346 731 c-50 -33 -69 -74 -64 -138 4 -50 9 -60 43 -91 34 -32 41
-34 88 -29 43 4 56 10 89 45 33 36 38 47 38 91 0 39 -6 56 -27 82 -48 57 -116
73 -167 40z"/>
</g>
</svg>
