<?xml version="1.0" standalone="no"?>
<!DOCTYPE svg PUBLIC "-//W3C//DTD SVG 20010904//EN"
 "http://www.w3.org/TR/2001/REC-SVG-20010904/DTD/svg10.dtd">
<svg version="1.0" xmlns="http://www.w3.org/2000/svg"
 width="700.000000pt" height="700.000000pt" viewBox="0 0 700.000000 700.000000"
 preserveAspectRatio="xMidYMid meet">
<metadata>
Created by potrace 1.14, written by Peter Selinger 2001-2017
</metadata>
<g transform="translate(0.000000,700.000000) scale(0.100000,-0.100000)"
fill="#000000" stroke="none">
<path d="M3497 5393 c-3 -5 -8 -60 -11 -122 -3 -63 -9 -118 -15 -124 -5 -5 -7
-15 -5 -22 3 -7 0 -37 -5 -66 -6 -30 -13 -63 -15 -74 -12 -69 -19 -95 -25 -95
-4 0 -7 -8 -8 -17 -1 -20 -6 -37 -17 -68 -5 -11 -12 -32 -18 -47 -6 -16 -14
-28 -18 -28 -5 0 -6 -10 -2 -22 4 -16 2 -19 -8 -13 -8 5 -11 4 -6 -3 4 -6 2
-19 -3 -29 -5 -10 -15 -32 -22 -50 -7 -17 -17 -29 -21 -27 -4 3 -5 -3 -1 -12
5 -14 3 -16 -12 -11 -14 6 -15 4 -7 -5 7 -10 0 -32 -29 -83 -21 -38 -44 -69
-50 -67 -6 1 -8 -1 -5 -6 12 -20 -168 -267 -187 -255 -6 3 -7 1 -4 -4 4 -6
-11 -27 -33 -47 -22 -20 -38 -36 -36 -36 3 0 -21 -25 -53 -55 -32 -30 -61 -55
-65 -55 -4 0 -18 -11 -32 -25 -14 -14 -30 -22 -36 -19 -6 4 -8 3 -5 -3 4 -6
-4 -18 -18 -27 -14 -9 -25 -15 -25 -12 0 2 -13 -8 -29 -23 -15 -14 -46 -35
-67 -46 -21 -11 -42 -24 -45 -29 -4 -5 -12 -5 -19 -1 -8 5 -11 4 -7 -2 8 -13
-20 -26 -36 -16 -7 3 -9 3 -5 -2 11 -11 -29 -38 -44 -29 -6 4 -8 3 -5 -3 7
-12 -40 -36 -54 -28 -5 4 -9 2 -9 -2 0 -5 -19 -17 -42 -27 -24 -10 -56 -24
-73 -31 -47 -21 -137 -45 -145 -40 -5 3 -10 1 -12 -4 -1 -6 -14 -11 -28 -13
-14 -2 -29 -6 -35 -9 -11 -7 -62 -17 -123 -25 -20 -2 -48 -7 -62 -10 -14 -3
-74 -7 -134 -10 -101 -4 -126 -8 -115 -18 2 -2 49 -6 104 -9 55 -3 111 -8 125
-10 14 -3 48 -8 76 -11 53 -7 241 -53 259 -64 5 -4 17 -8 25 -9 35 -5 130 -50
123 -58 -5 -4 -2 -5 4 -1 12 7 165 -61 171 -76 2 -5 11 -8 21 -8 9 0 27 -9 39
-20 12 -11 24 -20 27 -20 20 2 216 -143 289 -212 16 -16 33 -28 38 -28 5 0 6
-4 3 -10 -3 -5 1 -10 10 -10 11 0 15 -5 11 -16 -3 -8 -2 -13 3 -10 9 6 142
-135 150 -158 2 -6 7 -13 10 -16 3 -3 14 -15 25 -27 16 -20 17 -25 5 -40 -12
-16 -12 -17 1 -6 13 10 21 4 48 -37 18 -27 32 -53 31 -56 0 -4 3 -10 8 -13 13
-8 75 -123 108 -201 15 -36 36 -84 46 -107 11 -24 19 -49 19 -56 0 -8 3 -17 7
-21 4 -3 8 -12 9 -19 2 -7 12 -43 22 -82 40 -139 60 -284 61 -435 1 -95 19
-41 25 75 5 113 14 189 23 215 6 15 14 64 16 88 0 6 4 12 9 12 5 0 7 4 4 9
-12 19 59 235 75 225 5 -3 6 2 3 10 -3 9 6 39 20 68 14 28 26 57 26 63 0 7 9
22 20 35 11 13 20 31 20 42 0 10 3 18 8 18 4 0 13 14 20 30 8 17 18 28 23 25
5 -4 7 0 4 7 -7 19 21 52 37 42 10 -6 10 -4 -1 9 -12 16 -8 22 12 18 5 -1 6 3
2 9 -4 6 -1 18 6 26 10 12 14 12 21 2 5 -9 7 -5 6 12 -2 19 2 25 15 24 15 -2
16 1 5 14 -11 13 -10 15 4 9 12 -4 15 -2 12 7 -3 8 5 25 18 39 13 14 38 44 57
66 18 22 38 38 43 35 4 -3 7 0 6 8 -2 7 3 12 10 10 8 -1 11 2 8 7 -7 11 135
145 197 188 23 15 51 36 61 46 11 9 26 17 33 17 7 0 13 3 13 8 0 13 109 74
120 67 6 -4 9 -1 8 7 -2 7 4 13 12 13 8 0 20 6 26 14 7 8 16 11 24 6 8 -5 11
-4 7 2 -7 12 158 87 172 78 6 -3 11 -2 11 4 0 22 273 101 361 104 26 1 45 5
43 8 -2 3 9 7 24 8 15 1 43 3 62 5 19 2 68 4 108 5 83 1 91 17 10 20 -142 5
-239 17 -343 42 -44 11 -91 22 -105 25 -63 13 -179 58 -173 67 3 6 1 7 -5 3
-12 -7 -94 23 -88 33 2 3 -7 7 -20 7 -13 1 -37 10 -52 20 -15 10 -31 19 -37
19 -5 0 -9 12 -7 25 2 23 2 24 -11 6 -14 -19 -14 -19 -35 2 -11 11 -23 18 -26
15 -8 -9 -37 18 -30 28 3 5 -1 6 -9 4 -7 -3 -27 7 -43 21 -16 15 -31 26 -33
24 -6 -5 -141 101 -141 111 0 5 -6 9 -13 9 -8 0 -28 15 -45 33 -16 17 -42 42
-56 55 -14 13 -24 29 -23 35 2 10 -3 12 -35 16 -6 0 -9 4 -5 7 3 3 -4 16 -16
29 -56 59 -77 84 -77 94 0 6 -5 11 -12 11 -6 0 -8 3 -5 6 3 4 -5 15 -18 26
-14 11 -25 26 -25 34 0 8 -4 14 -10 14 -5 0 -10 9 -10 21 0 13 -4 18 -12 13
-8 -5 -9 -2 -5 9 3 9 2 16 -3 14 -9 -2 -34 36 -68 103 -9 19 -23 41 -30 49 -7
7 -11 20 -8 28 3 8 1 11 -4 8 -6 -3 -10 -1 -10 5 0 7 -13 40 -29 74 -57 119
-122 350 -136 481 -4 32 -9 63 -11 67 -3 4 1 8 8 8 9 0 10 3 2 8 -7 4 -12 43
-13 92 -2 85 -4 99 -14 83z"/>
<path d="M3905 4920 c-3 -6 1 -7 9 -4 18 7 21 14 7 14 -6 0 -13 -4 -16 -10z"/>
<path d="M3630 4776 c0 -2 8 -10 18 -17 15 -13 16 -12 3 4 -13 16 -21 21 -21
13z"/>
<path d="M4195 4561 c-3 -5 -2 -12 3 -15 5 -3 9 1 9 9 0 17 -3 19 -12 6z"/>
<path d="M2839 4538 c-5 -18 -6 -38 -1 -34 7 8 12 36 6 36 -2 0 -4 -1 -5 -2z"/>
<path d="M3755 4531 c-3 -5 -2 -12 3 -15 5 -3 9 1 9 9 0 17 -3 19 -12 6z"/>
<path d="M3147 4479 c7 -7 15 -10 18 -7 3 3 -2 9 -12 12 -14 6 -15 5 -6 -5z"/>
<path d="M4159 4473 c-13 -16 -12 -17 4 -4 9 7 17 15 17 17 0 8 -8 3 -21 -13z"/>
<path d="M3115 4400 c3 -5 8 -10 11 -10 2 0 4 5 4 10 0 6 -5 10 -11 10 -5 0
-7 -4 -4 -10z"/>
<path d="M3133 4345 c0 -8 4 -12 9 -9 5 3 6 10 3 15 -9 13 -12 11 -12 -6z"/>
<path d="M3007 4319 c7 -7 15 -10 18 -7 3 3 -2 9 -12 12 -14 6 -15 5 -6 -5z"/>
<path d="M3115 4310 c-4 -6 -11 -7 -17 -4 -7 4 -8 2 -4 -5 6 -9 11 -9 22 0 14
11 18 19 10 19 -3 0 -8 -5 -11 -10z"/>
<path d="M4635 4291 c-3 -5 -2 -12 3 -15 5 -3 9 1 9 9 0 17 -3 19 -12 6z"/>
<path d="M4047 4239 c7 -7 15 -10 18 -7 3 3 -2 9 -12 12 -14 6 -15 5 -6 -5z"/>
<path d="M2875 4189 c-4 -6 -5 -12 -2 -15 2 -3 7 2 10 11 7 17 1 20 -8 4z"/>
<path d="M2975 4179 c-3 -4 2 -6 10 -5 21 3 28 13 10 13 -9 0 -18 -4 -20 -8z"/>
<path d="M4195 4149 c-4 -6 -5 -12 -2 -15 2 -3 7 2 10 11 7 17 1 20 -8 4z"/>
<path d="M4055 4139 c-3 -4 2 -6 10 -5 21 3 28 13 10 13 -9 0 -18 -4 -20 -8z"/>
<path d="M4126 4142 c-3 -5 1 -9 9 -9 8 0 12 4 9 9 -3 4 -7 8 -9 8 -2 0 -6 -4
-9 -8z"/>
<path d="M2870 4119 c0 -5 5 -7 10 -4 6 3 10 8 10 11 0 2 -4 4 -10 4 -5 0 -10
-5 -10 -11z"/>
<path d="M4590 4126 c0 -2 7 -7 16 -10 8 -3 12 -2 9 4 -6 10 -25 14 -25 6z"/>
<path d="M2915 4099 c-3 -4 2 -6 10 -5 21 3 28 13 10 13 -9 0 -18 -4 -20 -8z"/>
<path d="M2675 4081 c-3 -5 -2 -12 3 -15 5 -3 9 1 9 9 0 17 -3 19 -12 6z"/>
<path d="M2875 4080 c-3 -5 -1 -10 4 -10 6 0 11 5 11 10 0 6 -2 10 -4 10 -3 0
-8 -4 -11 -10z"/>
<path d="M4094 4076 c1 -8 5 -18 8 -22 4 -3 5 1 4 10 -1 8 -5 18 -8 22 -4 3
-5 -1 -4 -10z"/>
<path d="M4150 4038 c0 -4 4 -8 9 -8 6 0 12 4 15 8 3 5 -1 9 -9 9 -8 0 -15 -4
-15 -9z"/>
<path d="M2760 4020 c-12 -7 -10 -9 7 -7 12 0 19 5 17 9 -6 10 -6 10 -24 -2z"/>
<path d="M4215 4021 c-3 -5 -2 -12 3 -15 5 -3 9 1 9 9 0 17 -3 19 -12 6z"/>
<path d="M2586 4002 c-3 -5 1 -9 9 -9 8 0 12 4 9 9 -3 4 -7 8 -9 8 -2 0 -6 -4
-9 -8z"/>
<path d="M2816 3978 c3 -4 11 -5 19 -1 21 7 19 12 -4 10 -11 0 -18 -5 -15 -9z"/>
<path d="M2730 3966 c0 -2 7 -7 16 -10 8 -3 12 -2 9 4 -6 10 -25 14 -25 6z"/>
<path d="M2075 3951 c-3 -5 -2 -12 3 -15 5 -3 9 1 9 9 0 17 -3 19 -12 6z"/>
<path d="M4270 3940 c0 -5 5 -10 11 -10 5 0 7 5 4 10 -3 6 -8 10 -11 10 -2 0
-4 -4 -4 -10z"/>
<path d="M4295 3901 c-3 -5 -2 -12 3 -15 5 -3 9 1 9 9 0 17 -3 19 -12 6z"/>
<path d="M2354 3889 c-3 -6 -2 -15 3 -20 5 -5 9 -1 9 11 0 23 -2 24 -12 9z"/>
<path d="M4347 3879 c7 -7 15 -10 18 -7 3 3 -2 9 -12 12 -14 6 -15 5 -6 -5z"/>
<path d="M4315 3121 c-3 -5 -2 -12 3 -15 5 -3 9 1 9 9 0 17 -3 19 -12 6z"/>
<path d="M2390 3079 c0 -5 5 -7 10 -4 6 3 10 8 10 11 0 2 -4 4 -10 4 -5 0 -10
-5 -10 -11z"/>
<path d="M4196 3042 c-3 -5 1 -9 9 -9 8 0 12 4 9 9 -3 4 -7 8 -9 8 -2 0 -6 -4
-9 -8z"/>
<path d="M4145 3000 c-3 -6 1 -7 9 -4 18 7 21 14 7 14 -6 0 -13 -4 -16 -10z"/>
<path d="M2794 2982 c4 -3 14 -7 22 -8 9 -1 13 0 10 4 -4 3 -14 7 -22 8 -9 1
-13 0 -10 -4z"/>
<path d="M2855 2960 c-3 -5 -1 -10 4 -10 6 0 11 5 11 10 0 6 -2 10 -4 10 -3 0
-8 -4 -11 -10z"/>
<path d="M2713 2925 c0 -8 4 -12 9 -9 5 3 6 10 3 15 -9 13 -12 11 -12 -6z"/>
<path d="M2939 2908 c-5 -18 -6 -38 -1 -34 7 8 12 36 6 36 -2 0 -4 -1 -5 -2z"/>
<path d="M4126 2898 c3 -5 10 -6 15 -3 13 9 11 12 -6 12 -8 0 -12 -4 -9 -9z"/>
<path d="M4095 2861 c-3 -5 -2 -12 3 -15 5 -3 9 1 9 9 0 17 -3 19 -12 6z"/>
<path d="M2954 2822 c4 -3 14 -7 22 -8 9 -1 13 0 10 4 -4 3 -14 7 -22 8 -9 1
-13 0 -10 -4z"/>
<path d="M3999 2818 c-5 -18 -6 -38 -1 -34 7 8 12 36 6 36 -2 0 -4 -1 -5 -2z"/>
<path d="M3019 2808 c-5 -18 -6 -38 -1 -34 7 8 12 36 6 36 -2 0 -4 -1 -5 -2z"/>
<path d="M3955 2740 c-3 -5 -1 -10 4 -10 6 0 11 5 11 10 0 6 -2 10 -4 10 -3 0
-8 -4 -11 -10z"/>
<path d="M2826 2722 c-3 -5 1 -9 9 -9 8 0 12 4 9 9 -3 4 -7 8 -9 8 -2 0 -6 -4
-9 -8z"/>
<path d="M2970 2726 c0 -2 7 -7 16 -10 8 -3 12 -2 9 4 -6 10 -25 14 -25 6z"/>
<path d="M3055 2720 c-3 -5 -1 -10 4 -10 6 0 11 5 11 10 0 6 -2 10 -4 10 -3 0
-8 -4 -11 -10z"/>
<path d="M2594 2680 c0 -13 4 -16 10 -10 7 7 7 13 0 20 -6 6 -10 3 -10 -10z"/>
<path d="M2946 2638 c3 -5 10 -6 15 -3 13 9 11 12 -6 12 -8 0 -12 -4 -9 -9z"/>
<path d="M3056 2638 c3 -5 10 -6 15 -3 13 9 11 12 -6 12 -8 0 -12 -4 -9 -9z"/>
<path d="M3066 2562 c-3 -5 1 -9 9 -9 8 0 12 4 9 9 -3 4 -7 8 -9 8 -2 0 -6 -4
-9 -8z"/>
<path d="M3786 2522 c-3 -5 1 -9 9 -9 8 0 12 4 9 9 -3 4 -7 8 -9 8 -2 0 -6 -4
-9 -8z"/>
<path d="M4279 2513 c-13 -16 -12 -17 4 -4 9 7 17 15 17 17 0 8 -8 3 -21 -13z"/>
<path d="M4350 2522 c0 -5 7 -9 15 -9 8 0 12 4 9 9 -3 4 -9 8 -15 8 -5 0 -9
-4 -9 -8z"/>
<path d="M2710 2496 c0 -2 8 -10 18 -17 15 -13 16 -12 3 4 -13 16 -21 21 -21
13z"/>
<path d="M4473 2465 c0 -8 4 -12 9 -9 5 3 6 10 3 15 -9 13 -12 11 -12 -6z"/>
<path d="M4186 2402 c-3 -5 1 -9 9 -9 8 0 12 4 9 9 -3 4 -7 8 -9 8 -2 0 -6 -4
-9 -8z"/>
<path d="M3073 2235 c0 -8 4 -12 9 -9 5 3 6 10 3 15 -9 13 -12 11 -12 -6z"/>
<path d="M3355 2100 c-3 -5 -1 -10 4 -10 6 0 11 5 11 10 0 6 -2 10 -4 10 -3 0
-8 -4 -11 -10z"/>
<path d="M3950 1976 c0 -2 8 -10 18 -17 15 -13 16 -12 3 4 -13 16 -21 21 -21
13z"/>
<path d="M3225 1840 c-3 -6 1 -7 9 -4 18 7 21 14 7 14 -6 0 -13 -4 -16 -10z"/>
</g>
</svg>
